<?xml version="1.0" standalone="no"?>
<!DOCTYPE svg PUBLIC "-//W3C//DTD SVG 20010904//EN"
 "http://www.w3.org/TR/2001/REC-SVG-20010904/DTD/svg10.dtd">
<svg version="1.0" xmlns="http://www.w3.org/2000/svg"
 width="1181.000000pt" height="1181.000000pt" viewBox="0 0 1181.000000 1181.000000"
 preserveAspectRatio="xMidYMid meet">
<metadata>
Created by potrace 1.14, written by Peter Selinger 2001-2017
</metadata>
<g transform="translate(0.000000,1181.000000) scale(0.100000,-0.100000)"
fill="#000000" stroke="none">
<path d="M5812 9622 c-49 -86 -99 -173 -110 -192 -28 -49 -495 -858 -550 -952
-25 -43 -48 -78 -52 -78 -4 0 -47 -23 -96 -51 -49 -29 -177 -103 -284 -164
-107 -62 -242 -140 -300 -173 -92 -54 -107 -59 -125 -48 -11 7 -94 55 -185
107 -91 51 -167 96 -170 99 -3 3 -19 12 -35 21 -17 9 -102 58 -189 109 -88 50
-165 94 -172 97 -10 3 -12 -566 -12 -2726 l0 -2730 151 -87 c84 -48 172 -99
197 -114 25 -15 65 -39 90 -52 55 -30 439 -252 495 -286 22 -13 119 -69 215
-124 96 -55 208 -120 248 -144 40 -24 75 -44 77 -44 3 0 28 -14 56 -31 l51
-32 41 23 c44 24 374 214 487 280 229 134 502 290 506 290 3 0 17 8 32 19 15
10 108 65 207 121 99 57 229 132 288 167 59 34 110 63 112 63 3 0 29 16 59 35
30 19 57 35 59 35 3 0 56 30 118 66 63 37 139 80 169 97 30 16 62 36 71 43 8
8 18 14 21 14 7 0 179 99 195 112 8 7 11 125 11 454 l0 445 333 582 c183 320
340 595 348 610 9 16 21 36 26 45 6 10 26 46 46 82 l37 65 -1 458 c0 315 -4
460 -11 466 -14 11 -724 421 -753 435 -13 6 -23 18 -23 26 -1 8 -1 418 -1 911
0 885 -1 895 -20 908 -11 6 -37 21 -57 32 -20 11 -50 29 -67 39 -16 11 -43 27
-59 36 -15 8 -189 108 -385 221 -196 113 -376 217 -401 231 -25 14 -74 42
-109 64 -34 21 -64 38 -66 38 -1 0 -90 51 -197 113 -107 62 -201 116 -210 119
-12 5 -36 -29 -106 -150z"/>
</g>
</svg>
